<?xml version="1.0" encoding="UTF-8"?> <svg xmlns="http://www.w3.org/2000/svg" width="140" height="38" viewBox="0 0 140 38" fill="none"><path d="M24.9811 8.30829L16.7888 0H0V37.1H19.1084L30.1 25.9634L18.8104 14.5395L24.9811 8.30829Z" fill="#E10006"></path><path d="M55.1765 29.9099C55.7333 30.6548 56.0223 31.5632 55.9971 32.4899C56.0238 33.163 55.8728 33.8313 55.559 34.4288C55.2452 35.0262 54.7794 35.5322 54.2078 35.8966C53.0172 36.6988 51.2929 37.0999 49.035 37.0999H39.9001V20.2999H48.554C50.7133 20.2999 52.3569 20.6955 53.4847 21.4866C54.0157 21.8358 54.4486 22.3128 54.7427 22.8731C55.0369 23.4334 55.1827 24.0585 55.1664 24.6899C55.1776 25.4476 54.9724 26.1929 54.5744 26.8399C54.1635 27.4835 53.5817 28.0025 52.8928 28.3399C53.7954 28.6249 54.591 29.1718 55.1765 29.9099ZM44.6357 23.7299V26.9699H47.9251C49.535 26.9699 50.34 26.4266 50.34 25.3399C50.34 24.2533 49.535 23.7166 47.9251 23.7299H44.6357ZM51.164 31.9633C51.164 30.8277 50.3254 30.2588 48.6482 30.2566H44.6357V33.6666H48.6449C50.3243 33.6666 51.164 33.0988 51.164 31.9633Z" fill="white"></path><path d="M70.7001 33.4333V37.0999H57.4001V20.2999H70.371V23.9666H62.0375V26.7999H69.3836V30.3499H62.0375V33.4333H70.7001Z" fill="white"></path><path d="M80.1064 32.634H77.5282V37.0999H72.8002V20.3026H80.442C81.7929 20.2704 83.1351 20.5271 84.3792 21.0558C85.4308 21.5071 86.3273 22.258 86.9575 23.2155C87.5775 24.2018 87.8941 25.3493 87.8679 26.515C87.8948 27.6348 87.5995 28.7386 87.0173 29.6945C86.4288 30.6198 85.5883 31.3565 84.5952 31.8174L88.2002 37.0999H83.1399L80.1064 32.634ZM82.3525 24.6919C81.8563 24.2609 81.1243 24.0454 80.1563 24.0454H77.5282V28.9646H80.1563C81.1265 28.9646 81.8585 28.7524 82.3525 28.328C82.6033 28.1008 82.7999 27.8198 82.9276 27.5059C83.0553 27.192 83.1108 26.8533 83.0901 26.515C83.1095 26.1753 83.0534 25.8355 82.9258 25.5202C82.7982 25.2049 82.6024 24.922 82.3525 24.6919Z" fill="white"></path><path d="M101.791 28.6911H106.014V35.6588C105.002 36.3713 103.877 36.9076 102.684 37.2446C101.463 37.6095 100.194 37.7961 98.9186 37.7988C97.2568 37.8235 95.6146 37.4392 94.1383 36.6804C92.7593 35.9695 91.6057 34.8924 90.8058 33.5688C90.0155 32.1923 89.5999 30.6349 89.5999 29.05C89.5999 27.4652 90.0155 25.9077 90.8058 24.5312C91.6105 23.202 92.7744 22.1239 94.1652 21.4197C95.6659 20.6585 97.3314 20.2745 99.016 20.3012C100.472 20.2824 101.916 20.5561 103.262 21.1058C104.477 21.6067 105.553 22.3898 106.4 23.3894L103.36 26.1137C102.853 25.5236 102.224 25.0501 101.515 24.7261C100.806 24.402 100.035 24.2353 99.2546 24.2374C98.6121 24.2093 97.9706 24.311 97.3689 24.5366C96.7672 24.7621 96.2179 25.1067 95.7541 25.5495C94.8718 26.4242 94.4238 27.5894 94.4104 29.045C94.3951 29.9129 94.6032 30.7702 95.0151 31.5356C95.4027 32.2498 95.9848 32.841 96.6947 33.2416C97.4551 33.6584 98.3124 33.8691 99.1807 33.8526C100.072 33.858 100.953 33.67 101.764 33.3017L101.791 28.6911Z" fill="white"></path><path d="M121.8 33.4333V37.0999H108.5V20.2999H121.487V23.9666H113.135V26.7999H120.483V30.3499H113.135V33.4333H121.8Z" fill="white"></path><path d="M140 20.2999V37.0999H136.061L128.59 28.1499V37.0999H123.9V20.2999H127.839L135.311 29.2499V20.2999H140Z" fill="white"></path></svg>